<?xml version="1.0" standalone="no"?>
<!DOCTYPE svg PUBLIC "-//W3C//DTD SVG 20010904//EN"
 "http://www.w3.org/TR/2001/REC-SVG-20010904/DTD/svg10.dtd">
<svg version="1.0" xmlns="http://www.w3.org/2000/svg"
 width="1024.000000pt" height="1024.000000pt" viewBox="0 0 1024.000000 1024.000000"
 preserveAspectRatio="xMidYMid meet">

<g transform="translate(0.000000,1024.000000) scale(0.100000,-0.100000)"
fill="#000000" stroke="none">
<path d="M3435 6385 l-25 -24 0 -936 0 -936 23 -23 c21 -21 34 -23 182 -29
272 -10 460 -50 631 -132 97 -47 229 -140 281 -198 64 -71 149 -63 238 22 205
196 486 294 878 308 136 5 161 9 183 25 l24 20 -2 945 -3 946 -26 19 c-24 18
-35 18 -205 9 -193 -11 -315 -29 -434 -63 -178 -51 -366 -152 -486 -262 l-65
-58 -57 54 c-204 193 -511 305 -902 328 -218 13 -207 13 -235 -15z m395 -166
c207 -25 414 -102 555 -208 96 -72 133 -109 158 -156 22 -40 22 -43 25 -799
l3 -759 -33 25 c-191 146 -428 235 -713 267 -49 6 -125 13 -167 17 l-78 6 0
811 0 812 83 -3 c45 -1 120 -7 167 -13z m1853 -797 l2 -811 -65 -5 c-264 -22
-362 -38 -505 -83 -110 -34 -251 -104 -338 -168 l-72 -53 -3 722 c-2 501 0
737 8 773 15 68 54 120 145 192 186 148 406 224 695 240 69 3 126 6 128 5 1 0
3 -366 5 -812z"/>
<path d="M3860 5289 l0 -480 88 3 87 3 0 166 0 166 115 6 c134 7 186 24 254
87 59 55 88 124 89 214 1 102 -24 168 -87 231 -77 77 -109 85 -348 85 l-198 0
0 -481z m378 307 c47 -25 72 -70 72 -134 0 -107 -59 -152 -198 -152 l-82 0 0
156 0 156 88 -4 c56 -3 99 -11 120 -22z"/>
<path d="M5050 5581 c-87 -28 -146 -78 -179 -151 -32 -70 -29 -75 44 -94 83
-21 79 -21 93 18 18 48 45 68 102 74 91 8 140 -32 140 -116 0 -39 0 -39 -52
-50 -29 -6 -82 -16 -118 -22 -164 -29 -260 -118 -260 -245 0 -131 100 -214
244 -203 68 6 108 23 161 69 l35 31 0 -41 c0 -40 1 -41 33 -41 17 0 56 3 85 7
l53 6 -3 286 c-3 316 -6 332 -71 399 -54 56 -101 75 -197 79 -47 1 -96 -1
-110 -6z m182 -564 c-40 -69 -166 -103 -212 -57 -24 24 -27 86 -4 118 22 32
50 44 144 62 l85 16 3 -54 c2 -38 -2 -62 -16 -85z"/>
<path d="M1435 5898 c-3 -7 -4 -283 -3 -613 l3 -600 130 0 130 0 0 610 0 610
-128 3 c-96 2 -129 -1 -132 -10z"/>
<path d="M2353 5615 c-57 -17 -120 -55 -165 -99 -20 -20 -39 -36 -43 -36 -3 0
-5 27 -5 60 l0 60 -120 0 -120 0 2 -457 3 -458 118 -3 117 -3 0 239 c0 323 13
384 98 449 120 91 272 47 301 -87 6 -30 11 -166 11 -325 l0 -275 120 0 120 0
0 333 c0 253 -4 345 -14 385 -41 153 -150 233 -315 231 -36 0 -85 -6 -108 -14z"/>
<path d="M6315 5616 c-155 -37 -278 -170 -315 -337 -18 -82 -9 -240 19 -311
48 -124 159 -229 278 -264 38 -11 83 -15 146 -12 108 4 162 25 228 91 l42 42
-5 -90 c-5 -103 -28 -159 -80 -198 -52 -39 -101 -50 -202 -45 -102 5 -156 25
-224 83 l-40 35 -66 -81 -66 -81 42 -34 c56 -45 169 -99 236 -113 75 -16 228
-14 295 4 185 48 311 184 337 361 5 38 10 264 10 502 l0 432 -115 0 -115 0 0
-56 0 -57 -20 25 c-28 37 -107 84 -169 102 -64 19 -145 19 -216 2z m290 -234
c79 -55 109 -129 103 -252 -4 -96 -39 -159 -112 -205 -44 -27 -58 -30 -130
-30 -92 0 -124 13 -181 72 -106 109 -78 344 50 423 73 45 199 42 270 -8z"/>
<path d="M7460 5623 c-65 -11 -155 -49 -208 -87 -69 -51 -103 -94 -144 -183
-28 -60 -32 -80 -36 -178 -3 -81 0 -127 12 -175 88 -345 554 -455 800 -189 31
33 56 64 56 70 0 10 -136 76 -174 84 -16 4 -28 -5 -47 -33 -32 -47 -83 -72
-159 -79 -139 -13 -250 80 -250 210 l0 27 329 0 c305 0 329 1 333 18 2 9 1 60
-3 112 -7 79 -14 106 -44 166 -84 170 -277 269 -465 237z m110 -183 c29 -6 68
-22 87 -36 39 -30 73 -91 73 -134 l0 -30 -210 0 c-236 0 -227 -3 -191 75 25
54 79 104 132 120 55 17 47 17 109 5z"/>
<path d="M8342 5619 c-111 -19 -213 -91 -248 -175 -21 -50 -18 -147 6 -194 26
-51 81 -104 136 -130 24 -12 99 -35 166 -52 140 -34 172 -50 189 -91 10 -23 9
-34 -4 -61 -46 -97 -249 -83 -352 24 l-27 28 -76 -40 c-115 -61 -113 -56 -45
-125 118 -122 283 -167 464 -129 83 18 133 43 183 93 111 110 107 301 -8 385
-57 41 -93 55 -235 89 -136 33 -172 48 -195 81 -23 33 -20 56 12 88 62 62 195
45 281 -34 l46 -43 82 57 83 58 -54 50 c-106 101 -257 146 -404 121z"/>
</g>
</svg>
