<svg width="20" height="21" viewBox="0 0 20 21" fill="none" xmlns="http://www.w3.org/2000/svg">
<path d="M10 10.6543C7.9082 10.6543 6.20312 8.80859 6.20312 6.5498C6.20312 4.31738 7.91699 2.51562 10 2.51562C12.1006 2.51562 13.7969 4.28223 13.7969 6.53223C13.7969 8.7998 12.0918 10.6543 10 10.6543ZM10 9.32715C11.292 9.32715 12.3818 8.08789 12.3818 6.53223C12.3818 4.99414 11.3096 3.84277 10 3.84277C8.69922 3.84277 7.61816 5.02051 7.61816 6.5498C7.61816 8.10547 8.7168 9.32715 10 9.32715ZM4.47168 18.793C3.0127 18.793 2.31836 18.3535 2.31836 17.3867C2.31836 15.084 5.22754 11.7529 10 11.7529C14.7637 11.7529 17.6729 15.084 17.6729 17.3867C17.6729 18.3535 16.9785 18.793 15.5195 18.793H4.47168ZM4.05859 17.4658H15.9414C16.1699 17.4658 16.2578 17.4043 16.2578 17.2197C16.2578 15.7695 14.0254 13.0801 10 13.0801C5.96582 13.0801 3.7334 15.7695 3.7334 17.2197C3.7334 17.4043 3.83008 17.4658 4.05859 17.4658Z" fill="black"/>
</svg>
